<?xml version="1.0" encoding="UTF-8"?>
<svg width="700pt" height="700pt" version="1.1" viewBox="0 0 700 700" xmlns="http://www.w3.org/2000/svg" xmlns:xlink="http://www.w3.org/1999/xlink">
 <defs>
  <symbol id="v" overflow="visible">
   <path d="m3.0781-0.1875c-0.15625 0.085938-0.32422 0.14844-0.5 0.1875-0.16797 0.039062-0.34375 0.0625-0.53125 0.0625-0.5625 0-1.0078-0.15625-1.3281-0.46875-0.32422-0.3125-0.48438-0.73438-0.48438-1.2656s0.16016-0.95312 0.48438-1.2656c0.32031-0.3125 0.76562-0.46875 1.3281-0.46875 0.1875 0 0.36328 0.023438 0.53125 0.0625 0.17578 0.042969 0.34375 0.10547 0.5 0.1875v0.6875c-0.15625-0.10156-0.3125-0.17969-0.46875-0.23438-0.15625-0.050781-0.32422-0.078125-0.5-0.078125-0.30469 0-0.54297 0.10156-0.71875 0.29688-0.17969 0.19922-0.26562 0.46875-0.26562 0.8125s0.085938 0.61719 0.26562 0.8125c0.17578 0.19922 0.41406 0.29688 0.71875 0.29688 0.17578 0 0.34375-0.023438 0.5-0.078125 0.15625-0.050781 0.3125-0.12891 0.46875-0.23438z"/>
  </symbol>
  <symbol id="b" overflow="visible">
   <path d="m2.25-1.8281c-0.074219-0.03125-0.14844-0.050781-0.21875-0.0625-0.0625-0.019531-0.13281-0.03125-0.20312-0.03125-0.21094 0-0.37109 0.070313-0.48438 0.20312-0.10547 0.125-0.15625 0.3125-0.15625 0.5625v1.1562h-0.79688v-2.5156h0.79688v0.42188c0.10156-0.16406 0.22266-0.28516 0.35938-0.35938 0.13281-0.082031 0.29688-0.125 0.48438-0.125 0.019531 0 0.046875 0.007813 0.078125 0.015625h0.14062z"/>
  </symbol>
  <symbol id="a" overflow="visible">
   <path d="m2.8906-1.2656v0.23438h-1.875c0.019531 0.1875 0.085937 0.32812 0.20312 0.42188 0.11328 0.09375 0.27344 0.14062 0.48438 0.14062 0.17578 0 0.35156-0.023438 0.53125-0.078125 0.17578-0.050781 0.35938-0.125 0.54688-0.21875v0.60938c-0.19922 0.074219-0.39062 0.125-0.57812 0.15625-0.1875 0.039062-0.375 0.0625-0.5625 0.0625-0.46094 0-0.8125-0.11328-1.0625-0.34375-0.25-0.22656-0.375-0.55078-0.375-0.96875 0-0.41406 0.11719-0.73828 0.35938-0.96875 0.25-0.23828 0.59375-0.35938 1.0312-0.35938 0.39453 0 0.70703 0.12109 0.9375 0.35938 0.23828 0.24219 0.35938 0.55859 0.35938 0.95312zm-0.82812-0.26562c0-0.15625-0.046875-0.27344-0.14062-0.35938-0.085937-0.09375-0.19922-0.14062-0.34375-0.14062-0.14844 0-0.27344 0.042969-0.375 0.125-0.09375 0.085938-0.15234 0.21094-0.17188 0.375z"/>
  </symbol>
  <symbol id="f" overflow="visible">
   <path d="m1.5156-1.125c-0.16797 0-0.29688 0.03125-0.39062 0.09375-0.085938 0.054688-0.125 0.13281-0.125 0.23438 0 0.10547 0.035156 0.1875 0.10938 0.25 0.070313 0.054687 0.16406 0.078125 0.28125 0.078125 0.15625 0 0.28125-0.050781 0.375-0.15625 0.10156-0.11328 0.15625-0.25 0.15625-0.40625v-0.09375zm1.2188-0.3125v1.4375h-0.8125v-0.375c-0.10547 0.15625-0.22656 0.27344-0.35938 0.34375-0.13672 0.0625-0.29688 0.09375-0.48438 0.09375-0.26172 0-0.47656-0.070312-0.64062-0.21875-0.15625-0.15625-0.23438-0.35156-0.23438-0.59375 0-0.30078 0.097656-0.51953 0.29688-0.65625 0.20703-0.13281 0.52344-0.20312 0.95312-0.20312h0.46875v-0.0625c0-0.125-0.054687-0.21094-0.15625-0.26562-0.09375-0.0625-0.24609-0.09375-0.45312-0.09375-0.17969 0-0.33984 0.015625-0.48438 0.046875-0.14844 0.03125-0.28125 0.085937-0.40625 0.15625v-0.60938c0.16406-0.039062 0.33594-0.070312 0.51562-0.09375 0.17578-0.03125 0.34766-0.046875 0.51562-0.046875 0.45703 0 0.78516 0.09375 0.98438 0.28125 0.19531 0.17969 0.29688 0.46484 0.29688 0.85938z"/>
  </symbol>
  <symbol id="e" overflow="visible">
   <path d="m1.2656-3.2188v0.70312h0.82812v0.57812h-0.82812v1.0625c0 0.11719 0.019531 0.19531 0.0625 0.23438 0.050781 0.042969 0.14453 0.0625 0.28125 0.0625h0.40625v0.57812h-0.6875c-0.3125 0-0.53906-0.0625-0.67188-0.1875-0.13672-0.13281-0.20312-0.36328-0.20312-0.6875v-1.0625h-0.39062v-0.57812h0.39062v-0.70312z"/>
  </symbol>
  <symbol id="m" overflow="visible">
   <path d="m2.0938-2.1406v-1.3438h0.8125v3.4844h-0.8125v-0.35938c-0.11719 0.14844-0.24219 0.25781-0.375 0.32812-0.125 0.0625-0.27734 0.09375-0.45312 0.09375-0.3125 0-0.57031-0.11719-0.76562-0.35938-0.19922-0.25-0.29688-0.56641-0.29688-0.95312 0-0.38281 0.097656-0.70312 0.29688-0.95312 0.19531-0.25 0.45312-0.375 0.76562-0.375 0.17578 0 0.32812 0.039063 0.45312 0.10938 0.13281 0.074219 0.25781 0.18359 0.375 0.32812zm-0.53125 1.625c0.17578 0 0.30469-0.0625 0.39062-0.1875 0.09375-0.125 0.14062-0.30469 0.14062-0.54688 0-0.23828-0.046875-0.42188-0.14062-0.54688-0.085937-0.125-0.21484-0.1875-0.39062-0.1875-0.16797 0-0.29688 0.0625-0.39062 0.1875s-0.14062 0.30859-0.14062 0.54688c0 0.24219 0.046875 0.42188 0.14062 0.54688s0.22266 0.1875 0.39062 0.1875z"/>
  </symbol>
  <symbol id="d" overflow="visible">
   <path d="m1.7188-0.51562c0.17578 0 0.30469-0.0625 0.39062-0.1875 0.09375-0.125 0.14062-0.30469 0.14062-0.54688 0-0.23828-0.046875-0.42188-0.14062-0.54688-0.085937-0.125-0.21484-0.1875-0.39062-0.1875-0.16797 0-0.29688 0.0625-0.39062 0.1875s-0.14062 0.30859-0.14062 0.54688c0 0.24219 0.046875 0.42188 0.14062 0.54688s0.22266 0.1875 0.39062 0.1875zm-0.53125-1.625c0.11328-0.14453 0.23828-0.25391 0.375-0.32812 0.13281-0.070312 0.28516-0.10938 0.45312-0.10938 0.3125 0 0.56641 0.125 0.76562 0.375 0.19531 0.25 0.29688 0.57031 0.29688 0.95312 0 0.38672-0.10156 0.70312-0.29688 0.95312-0.19922 0.24219-0.45312 0.35938-0.76562 0.35938-0.16797 0-0.32031-0.03125-0.45312-0.09375-0.13672-0.070312-0.26172-0.17969-0.375-0.32812v0.35938h-0.79688v-3.4844h0.79688z"/>
  </symbol>
  <symbol id="l" overflow="visible">
   <path d="m0.0625-2.5156h0.79688l0.67188 1.7031 0.57812-1.7031h0.79688l-1.0469 2.75c-0.10547 0.28125-0.23047 0.47266-0.375 0.57812-0.14844 0.11328-0.33594 0.17188-0.5625 0.17188h-0.46875v-0.51562h0.26562c0.13281 0 0.22656-0.027344 0.28125-0.078125 0.0625-0.042969 0.11328-0.11719 0.15625-0.21875l0.015625-0.078125z"/>
  </symbol>
  <symbol id="k" overflow="visible">
   <path d="m0.42188-3.3438h1.0938l0.76562 1.7812 0.76562-1.7812h1.0938v3.3438h-0.8125v-2.4531l-0.76562 1.8125h-0.54688l-0.78125-1.8125v2.4531h-0.8125z"/>
  </symbol>
  <symbol id="j" overflow="visible">
   <path d="m0.35938-0.98438v-1.5312h0.8125v0.25c0 0.13672-0.007813 0.30859-0.015625 0.51562v0.40625c0 0.21094 0.003906 0.35938 0.015625 0.45312 0.007813 0.085937 0.03125 0.14844 0.0625 0.1875 0.03125 0.054687 0.070313 0.09375 0.125 0.125 0.050781 0.023437 0.11328 0.03125 0.1875 0.03125 0.16406 0 0.29688-0.0625 0.39062-0.1875s0.14062-0.30078 0.14062-0.53125v-1.25h0.8125v2.5156h-0.8125v-0.35938c-0.11719 0.14844-0.24219 0.25781-0.375 0.32812-0.13672 0.0625-0.28906 0.09375-0.45312 0.09375-0.29297 0-0.51562-0.085938-0.67188-0.26562-0.14844-0.17578-0.21875-0.4375-0.21875-0.78125z"/>
  </symbol>
  <symbol id="i" overflow="visible">
   <path d="m2.9062-1.5312v1.5312h-0.79688v-1.1719c0-0.21875-0.007813-0.36719-0.015625-0.45312-0.011719-0.082031-0.03125-0.14062-0.0625-0.17188-0.03125-0.050781-0.074219-0.09375-0.125-0.125-0.054688-0.03125-0.10938-0.046875-0.17188-0.046875-0.17969 0-0.3125 0.070312-0.40625 0.20312-0.09375 0.125-0.14062 0.30469-0.14062 0.53125v1.2344h-0.79688v-3.4844h0.79688v1.3438c0.125-0.14453 0.25391-0.25391 0.39062-0.32812 0.13281-0.070312 0.28516-0.10938 0.45312-0.10938 0.28125 0 0.49219 0.09375 0.64062 0.28125 0.15625 0.17969 0.23438 0.43359 0.23438 0.76562z"/>
  </symbol>
  <symbol id="h" overflow="visible">
   <path d="m0.39062-2.5156h0.79688v2.4688c0 0.33203-0.085938 0.58594-0.25 0.76562-0.15625 0.17578-0.38672 0.26562-0.6875 0.26562h-0.40625v-0.51562h0.14062c0.15625 0 0.25781-0.039062 0.3125-0.10938 0.0625-0.0625 0.09375-0.19922 0.09375-0.40625zm0-0.96875h0.79688v0.65625h-0.79688z"/>
  </symbol>
  <symbol id="g" overflow="visible">
   <path d="m0.39062-2.5156h0.79688v2.5156h-0.79688zm0-0.96875h0.79688v0.65625h-0.79688z"/>
  </symbol>
  <symbol id="u" overflow="visible">
   <path d="m0.39062-3.4844h0.79688v3.4844h-0.79688z"/>
  </symbol>
  <symbol id="t" overflow="visible">
   <path d="m1.6562-1.8594c0.17578 0 0.30078-0.03125 0.375-0.09375 0.082031-0.070313 0.125-0.1875 0.125-0.34375s-0.042969-0.26562-0.125-0.32812c-0.074219-0.0625-0.19922-0.09375-0.375-0.09375h-0.375v0.85938zm-0.375 0.59375v1.2656h-0.85938v-3.3438h1.3125c0.44531 0 0.76953 0.074219 0.96875 0.21875 0.20703 0.14844 0.3125 0.38281 0.3125 0.70312 0 0.21875-0.054687 0.40234-0.15625 0.54688-0.10547 0.13672-0.26562 0.24219-0.48438 0.3125 0.11328 0.023438 0.21875 0.085938 0.3125 0.1875 0.09375 0.09375 0.1875 0.23438 0.28125 0.42188l0.48438 0.95312h-0.92188l-0.40625-0.82812c-0.085938-0.16406-0.17188-0.28125-0.26562-0.34375-0.085937-0.0625-0.19531-0.09375-0.32812-0.09375z"/>
  </symbol>
  <symbol id="c" overflow="visible">
   <path d="m1.5781-2c-0.17969 0-0.3125 0.070312-0.40625 0.20312-0.09375 0.125-0.14062 0.30859-0.14062 0.54688 0 0.24219 0.046875 0.42188 0.14062 0.54688s0.22656 0.1875 0.40625 0.1875c0.17578 0 0.3125-0.0625 0.40625-0.1875s0.14062-0.30469 0.14062-0.54688c0-0.23828-0.046875-0.42188-0.14062-0.54688-0.09375-0.13281-0.23047-0.20312-0.40625-0.20312zm0-0.57812c0.4375 0 0.77344 0.12109 1.0156 0.35938 0.23828 0.23047 0.35938 0.55469 0.35938 0.96875 0 0.40625-0.12109 0.73047-0.35938 0.96875-0.24219 0.23047-0.57812 0.34375-1.0156 0.34375-0.42969 0-0.76562-0.11328-1.0156-0.34375-0.24219-0.23828-0.35938-0.5625-0.35938-0.96875 0-0.41406 0.11719-0.73828 0.35938-0.96875 0.25-0.23828 0.58594-0.35938 1.0156-0.35938z"/>
  </symbol>
  <symbol id="s" overflow="visible">
   <path d="m2.0312-3.4844v0.51562h-0.4375c-0.11719 0-0.19531 0.023438-0.23438 0.0625-0.042969 0.042969-0.0625 0.11719-0.0625 0.21875v0.17188h0.67188v0.57812h-0.67188v1.9375h-0.8125v-1.9375h-0.39062v-0.57812h0.39062v-0.17188c0-0.26953 0.070313-0.46875 0.21875-0.59375 0.15625-0.13281 0.39453-0.20312 0.71875-0.20312z"/>
  </symbol>
  <symbol id="r" overflow="visible">
   <path d="m2.7188-2.0938c0.09375-0.15625 0.20703-0.27344 0.34375-0.35938 0.14453-0.082031 0.30078-0.125 0.46875-0.125 0.28906 0 0.50781 0.09375 0.65625 0.28125 0.15625 0.17969 0.23438 0.43359 0.23438 0.76562v1.5312h-0.8125v-1.3125c0.007813-0.019531 0.015625-0.039062 0.015625-0.0625v-0.078125c0-0.1875-0.027344-0.31641-0.078125-0.39062-0.054687-0.082031-0.14062-0.125-0.26562-0.125-0.14844 0-0.26172 0.0625-0.34375 0.1875-0.085938 0.125-0.125 0.30859-0.125 0.54688v1.2344h-0.8125v-1.3125c0-0.28125-0.027344-0.45703-0.078125-0.53125-0.042969-0.082031-0.125-0.125-0.25-0.125-0.15625 0-0.27734 0.0625-0.35938 0.1875-0.085938 0.125-0.125 0.30859-0.125 0.54688v1.2344h-0.8125v-2.5156h0.8125v0.375c0.10156-0.14453 0.21875-0.25391 0.34375-0.32812 0.125-0.070312 0.26562-0.10938 0.42188-0.10938 0.17578 0 0.32812 0.042969 0.45312 0.125 0.13281 0.085937 0.23828 0.20312 0.3125 0.35938z"/>
  </symbol>
  <symbol id="q" overflow="visible">
   <path d="m0.42188-3.3438h0.96875l1.2188 2.2969v-2.2969h0.8125v3.3438h-0.96875l-1.2188-2.2969v2.2969h-0.8125z"/>
  </symbol>
  <symbol id="p" overflow="visible">
   <path d="m2.9062-1.5312v1.5312h-0.79688v-1.1719c0-0.21875-0.007813-0.36719-0.015625-0.45312-0.011719-0.082031-0.03125-0.14062-0.0625-0.17188-0.03125-0.050781-0.074219-0.09375-0.125-0.125-0.054688-0.03125-0.10938-0.046875-0.17188-0.046875-0.17969 0-0.3125 0.070312-0.40625 0.20312-0.09375 0.125-0.14062 0.30469-0.14062 0.53125v1.2344h-0.79688v-2.5156h0.79688v0.375c0.125-0.14453 0.25391-0.25391 0.39062-0.32812 0.13281-0.070312 0.28516-0.10938 0.45312-0.10938 0.28125 0 0.49219 0.09375 0.64062 0.28125 0.15625 0.17969 0.23438 0.43359 0.23438 0.76562z"/>
  </symbol>
  <symbol id="o" overflow="visible">
   <path d="m0.42188-3.3438h1.4375c0.42578 0 0.75 0.09375 0.96875 0.28125 0.22656 0.1875 0.34375 0.46094 0.34375 0.8125 0 0.34375-0.11719 0.61719-0.34375 0.8125-0.21875 0.1875-0.54297 0.28125-0.96875 0.28125h-0.57812v1.1562h-0.85938zm0.85938 0.625v0.9375h0.48438c0.16406 0 0.28906-0.039062 0.375-0.125 0.09375-0.082031 0.14062-0.19531 0.14062-0.34375 0-0.15625-0.046875-0.26953-0.14062-0.34375-0.085937-0.082031-0.21094-0.125-0.375-0.125z"/>
  </symbol>
  <symbol id="n" overflow="visible">
   <path d="m2.4219-2.4375v0.65625c-0.11719-0.070312-0.23047-0.125-0.34375-0.15625-0.10547-0.039062-0.21484-0.0625-0.32812-0.0625-0.23047 0-0.40625 0.070312-0.53125 0.20312-0.125 0.125-0.1875 0.30859-0.1875 0.54688 0 0.23047 0.0625 0.41406 0.1875 0.54688 0.125 0.125 0.30078 0.1875 0.53125 0.1875 0.125 0 0.23828-0.015625 0.34375-0.046875 0.11328-0.039062 0.22266-0.097656 0.32812-0.17188v0.65625c-0.125 0.054688-0.25781 0.085938-0.39062 0.10938-0.125 0.019531-0.25781 0.03125-0.39062 0.03125-0.44922 0-0.80469-0.11328-1.0625-0.34375-0.25-0.22656-0.375-0.55078-0.375-0.96875 0-0.41406 0.125-0.73828 0.375-0.96875 0.25781-0.23828 0.61328-0.35938 1.0625-0.35938 0.13281 0 0.26562 0.015625 0.39062 0.046875 0.125 0.023438 0.25391 0.054688 0.39062 0.09375z"/>
  </symbol>
 </defs>
 <g>
  <path d="m161.04 0h135.17v543.45h-25.746c0-52.414-78.16-77.242-109.43-27.586zm148.05 197.7h125.98v281.38c-41.379-7.3555-101.15 6.4375-114.94 64.367h-11.035zm27.586 187.59h70.805v12.875h-70.805zm0 49.656h70.805v12.875h-70.805zm0-24.828h70.805v12.875h-70.805zm-2.7578-189.43h13.793v25.746h-13.793zm0 114.02h13.793v26.668h-13.793zm25.746 0h25.746v26.668h-25.746zm36.781 0h13.793v26.668h-13.793zm-62.527-37.699h13.793v26.668h-13.793zm25.746 0h25.746v26.668h-25.746zm36.781 0h13.793v26.668h-13.793zm-62.527-38.621h13.793v26.668h-13.793zm25.746 0h25.746v26.668h-25.746zm36.781 0h13.793v26.668h-13.793zm-36.781-37.699h25.746v25.746h-25.746zm36.781 0h13.793v25.746h-13.793zm-393.56 51.496h148.05v230.8c-39.539-40.461-105.75-13.793-106.67 40.461h-41.379zm22.988 24.828h26.668v24.828h-26.668zm0 151.72h26.668v24.828h-26.668zm74.484 0h27.586v24.828h-27.586zm-36.781 0h26.668v24.828h-26.668zm-37.699-37.699h26.668v24.828h-26.668zm74.484 0h27.586v24.828h-27.586zm-36.781 0h26.668v24.828h-26.668zm-37.699-38.621h26.668v25.746h-26.668zm74.484 0h27.586v25.746h-27.586zm-36.781 0h26.668v25.746h-26.668zm-37.699-37.699h26.668v24.828h-26.668zm74.484 0h27.586v24.828h-27.586zm-36.781 0h26.668v24.828h-26.668zm36.781-37.699h27.586v24.828h-27.586zm-36.781 0h26.668v24.828h-26.668zm131.5-249.2h15.633v39.539h-15.633zm0 319.08h15.633v39.539h-15.633zm51.496 0h15.633v39.539h-15.633zm-25.746 0h15.633v39.539h-15.633zm-25.746-53.332h15.633v39.539h-15.633zm51.496 0h15.633v39.539h-15.633zm-25.746 0h15.633v39.539h-15.633zm-25.746-53.332h15.633v39.539h-15.633zm51.496 0h15.633v39.539h-15.633zm-25.746 0h15.633v39.539h-15.633zm-25.746-52.414h15.633v39.539h-15.633zm51.496 0h15.633v39.539h-15.633zm-25.746 0h15.633v39.539h-15.633zm-25.746-53.332h15.633v39.539h-15.633zm51.496 0h15.633v39.539h-15.633zm-25.746 0h15.633v39.539h-15.633zm-25.746-53.332h15.633v39.539h-15.633zm51.496 0h15.633v39.539h-15.633zm-25.746 0h15.633v39.539h-15.633zm25.746-53.332h15.633v39.539h-15.633zm-25.746 0h15.633v39.539h-15.633z" fill-rule="evenodd"/>
  <path d="m160.11 531.5c20.23-56.094 103.91-42.301 103.91 17.473 0 3.6797 0 7.3555-0.91797 11.035h-212.41c-0.91797-4.5977-0.91797-9.1953-0.91797-13.793 0-65.289 93.793-77.242 110.34-14.711zm317.24-138.85c15.633 0 28.504 12.875 28.504 28.504 0 13.793-9.1953 24.828-21.148 28.504v48.734c16.551-11.953 31.266-11.953 56.094 2.7578v-87.355c-23.906-5.5156-40.461-26.668-40.461-51.496 0-29.426 23.906-53.332 53.332-53.332s52.414 23.906 52.414 53.332c0 24.828-16.551 45.977-40.461 51.496v89.195c12.875-6.4375 27.586-10.113 42.301-10.113 42.301 0 78.16 28.504 89.195 67.125h-376.09c11.953-66.207 91.953-92.875 149.89-61.609v-48.734c-12.875-3.6797-22.07-14.711-22.07-28.504 0-15.633 12.875-28.504 28.504-28.504z" fill-rule="evenodd"/>
  <use x="2.875" y="573.792969" xlink:href="#v"/>
  <use x="6.246094" y="573.792969" xlink:href="#b"/>
  <use x="8.515625" y="573.792969" xlink:href="#a"/>
  <use x="11.632812" y="573.792969" xlink:href="#f"/>
  <use x="14.734375" y="573.792969" xlink:href="#e"/>
  <use x="16.933594" y="573.792969" xlink:href="#a"/>
  <use x="20.050781" y="573.792969" xlink:href="#m"/>
  <use x="24.945312" y="573.792969" xlink:href="#d"/>
  <use x="28.234375" y="573.792969" xlink:href="#l"/>
  <use x="32.832031" y="573.792969" xlink:href="#k"/>
  <use x="37.40625" y="573.792969" xlink:href="#j"/>
  <use x="40.679687" y="573.792969" xlink:href="#i"/>
  <use x="43.953125" y="573.792969" xlink:href="#f"/>
  <use x="47.058594" y="573.792969" xlink:href="#h"/>
  <use x="48.632812" y="573.792969" xlink:href="#g"/>
  <use x="50.207031" y="573.792969" xlink:href="#b"/>
  <use x="54.078125" y="573.792969" xlink:href="#g"/>
  <use x="55.652344" y="573.792969" xlink:href="#u"/>
  <use x="57.230469" y="573.792969" xlink:href="#f"/>
  <use x="61.933594" y="573.792969" xlink:href="#t"/>
  <use x="65.472656" y="573.792969" xlink:href="#c"/>
  <use x="68.632812" y="573.792969" xlink:href="#d"/>
  <use x="71.921875" y="573.792969" xlink:href="#d"/>
  <use x="75.214844" y="573.792969" xlink:href="#g"/>
  <use x="2.875" y="578.390625" xlink:href="#s"/>
  <use x="4.875" y="578.390625" xlink:href="#b"/>
  <use x="7.140625" y="578.390625" xlink:href="#c"/>
  <use x="10.300781" y="578.390625" xlink:href="#r"/>
  <use x="16.691406" y="578.390625" xlink:href="#e"/>
  <use x="18.890625" y="578.390625" xlink:href="#i"/>
  <use x="22.164062" y="578.390625" xlink:href="#a"/>
  <use x="26.882812" y="578.390625" xlink:href="#q"/>
  <use x="30.730469" y="578.390625" xlink:href="#c"/>
  <use x="33.886719" y="578.390625" xlink:href="#j"/>
  <use x="37.160156" y="578.390625" xlink:href="#p"/>
  <use x="42.035156" y="578.390625" xlink:href="#o"/>
  <use x="45.40625" y="578.390625" xlink:href="#b"/>
  <use x="47.671875" y="578.390625" xlink:href="#c"/>
  <use x="50.832031" y="578.390625" xlink:href="#h"/>
  <use x="52.40625" y="578.390625" xlink:href="#a"/>
  <use x="55.523437" y="578.390625" xlink:href="#n"/>
  <use x="58.25" y="578.390625" xlink:href="#e"/>
 </g>
</svg>
